<?xml version="1.0" encoding="UTF-8" standalone="no"?>
<!-- Generator: Adobe Illustrator 18.0.0, SVG Export Plug-In . SVG Version: 6.00 Build 0)  -->

<svg
   version="1.1"
   id="Capa_1"
   x="0px"
   y="0px"
   viewBox="0 0 299.124 299.124"
   style="enable-background:new 0 0 299.124 299.124;"
   xml:space="preserve"
   sodipodi:docname="eye-svgrepo-com.svg"
   inkscape:version="1.1.2 (b8e25be833, 2022-02-05)"
   xmlns:inkscape="http://www.inkscape.org/namespaces/inkscape"
   xmlns:sodipodi="http://sodipodi.sourceforge.net/DTD/sodipodi-0.dtd"
   xmlns="http://www.w3.org/2000/svg"
   xmlns:svg="http://www.w3.org/2000/svg"><defs
   id="defs41" /><sodipodi:namedview
   id="namedview39"
   pagecolor="#ffffff"
   bordercolor="#999999"
   borderopacity="1"
   inkscape:pageshadow="0"
   inkscape:pageopacity="0"
   inkscape:pagecheckerboard="0"
   showgrid="false"
   inkscape:zoom="2.8115431"
   inkscape:cx="149.562"
   inkscape:cy="149.38416"
   inkscape:window-width="1920"
   inkscape:window-height="1027"
   inkscape:window-x="-8"
   inkscape:window-y="-8"
   inkscape:window-maximized="1"
   inkscape:current-layer="Capa_1" />
<g
   id="g6">
	<path
   d="M296.655,142.104c-2.659-3.576-66.046-87.574-147.093-87.574c-81.048,0-144.434,83.998-147.093,87.574   c-3.292,4.427-3.292,10.489,0,14.916c2.659,3.576,66.045,87.573,147.093,87.573c81.047,0,144.434-83.997,147.093-87.573   C299.947,152.594,299.947,146.531,296.655,142.104z M149.562,199.616c-27.6,0-50.054-22.454-50.054-50.054   c0-27.601,22.454-50.055,50.054-50.055c27.601,0,50.055,22.454,50.055,50.055C199.617,177.162,177.162,199.616,149.562,199.616z"
   id="path2" />
	<circle
   cx="149.562"
   cy="149.562"
   r="21.261"
   id="circle4" />
</g>
<g
   id="g8">
</g>
<g
   id="g10">
</g>
<g
   id="g12">
</g>
<g
   id="g14">
</g>
<g
   id="g16">
</g>
<g
   id="g18">
</g>
<g
   id="g20">
</g>
<g
   id="g22">
</g>
<g
   id="g24">
</g>
<g
   id="g26">
</g>
<g
   id="g28">
</g>
<g
   id="g30">
</g>
<g
   id="g32">
</g>
<g
   id="g34">
</g>
<g
   id="g36">
</g>
<path
   style="fill:#ffffff;stroke:#000000;stroke-width:0.999999"
   d="M 141.55927,244.13544 C 107.6615,241.72705 72.215375,224.74653 38.057393,194.55273 23.60225,181.77517 3.0381083,159.19449 1.0725842,153.94115 c -0.9561538,-2.55555 -0.9561538,-6.20276 0,-8.75831 1.966055,-5.25476 22.5454468,-27.85119 36.9848088,-40.60979 23.686739,-20.929577 47.16267,-35.105462 71.313147,-43.062278 27.83588,-9.171034 53.84546,-9.029623 81.80561,0.444769 23.46387,7.950811 46.25277,21.853485 70.06829,42.746099 13.64135,11.96713 34.87682,35.32242 36.80697,40.4812 0.95615,2.55555 0.95615,6.20276 0,8.75831 -1.96606,5.25476 -22.54545,27.85119 -36.98481,40.6098 -39.78548,35.1544 -81.13535,52.31077 -119.50733,49.58449 z m 18.52695,-45.43906 c 9.53315,-2.20432 17.82201,-6.66496 24.49322,-13.18098 18.0174,-17.5983 20.26705,-45.53837 5.30522,-65.88936 -7.03728,-9.57206 -17.82909,-16.51396 -29.85909,-19.20703 -4.95984,-1.110325 -15.5104,-1.195168 -20.24468,-0.1628 -20.68098,4.50973 -35.77942,19.89051 -39.67199,40.41387 -0.858563,4.52676 -0.877464,13.17699 -0.0385,17.60599 3.89841,20.57931 19.4855,36.54499 39.53262,40.4928 4.46137,0.87856 4.62638,0.88973 11.20381,0.75829 4.58443,-0.0916 7.02924,-0.31049 9.27936,-0.83078 z"
   id="path932" /><path
   style="fill:#ffffff;stroke:#000000;stroke-width:0.999999"
   d="m 143.67377,169.7131 c -7.50498,-2.2223 -13.09948,-8.34463 -14.75222,-16.14403 -0.64351,-3.03679 -0.64351,-4.97735 0,-8.01415 1.30658,-6.16586 5.36049,-11.63877 10.82354,-14.61213 5.46507,-2.97446 13.65381,-3.08271 19.19896,-0.25378 5.58772,2.85064 9.92264,8.56008 11.2475,14.81385 0.65693,3.10094 0.65693,5.01734 0,8.11827 -1.32486,6.25377 -5.65978,11.96321 -11.2475,14.81385 -4.25923,2.1729 -10.48791,2.69424 -15.27028,1.27812 z"
   id="path1045" /><path
   style="fill:#000000;stroke:#000000;stroke-width:0.999999"
   d="m 141.66829,198.48221 c -8.58091,-1.65688 -15.20579,-4.47629 -21.52142,-9.15904 -9.13268,-6.77147 -15.89036,-16.98047 -18.82205,-28.43493 -1.07699,-4.20797 -1.359587,-15.44103 -0.50447,-20.05307 3.68194,-19.8585 18.81359,-35.33047 38.99073,-39.86765 3.37279,-0.75843 14.55293,-0.85926 18.46499,-0.16654 13.03265,2.30775 25.56071,10.6741 32.80494,21.90744 7.93822,12.30947 10.02619,27.28353 5.7694,41.37572 -1.90448,6.30483 -5.81717,13.1897 -10.57339,18.60524 -6.49855,7.39941 -17.32436,13.56098 -27.11915,15.43503 -3.91926,0.74988 -14.35352,0.96335 -17.48958,0.3578 z m 14.47587,-28.26633 c 7.53854,-2.34067 13.38855,-9.18739 14.83828,-17.36638 0.53983,-3.04558 0.53983,-3.52942 0,-6.57501 -1.47122,-8.3002 -7.4133,-15.17638 -15.08205,-17.45295 -5.01978,-1.49018 -11.34411,-0.94284 -16.1096,1.39421 -1.97752,0.96979 -3.38605,2.02783 -5.38795,4.04722 -3.47881,3.50921 -5.41139,7.21662 -6.26128,12.01152 -0.53983,3.04559 -0.53983,3.52943 0,6.57501 1.61943,9.13643 8.69796,16.48064 17.38052,18.03289 2.75768,0.49302 7.93366,0.16823 10.62208,-0.66651 z"
   id="path1121" /><path
   style="fill:#ffffff;stroke:#000000;stroke-width:0.999999"
   d=""
   id="path1197" /><path
   style="fill:#ffffff;stroke:#000000;stroke-width:0.999999"
   d="m 142.98198,243.56981 c -1.07592,-0.0632 -4.11696,-0.36541 -6.75785,-0.6716 C 104.52802,239.2233 71.719622,222.91681 39.507002,194.82769 27.913977,184.71868 8.8752987,164.50742 3.5269869,156.63168 1.1158483,153.08112 0.42643324,149.33302 1.5820371,146.05769 4.0895507,138.95064 29.879857,111.72842 47.66066,97.420726 78.104981,72.92306 107.31679,59.52262 138.00251,55.977873 c 5.62717,-0.650038 18.4018,-0.557107 24.54168,0.178532 30.93147,3.705996 61.55783,18.352625 92.47591,44.225305 12.46148,10.42794 27.30465,25.45896 36.97501,37.44296 5.02863,6.23174 6.06185,8.23232 6.06185,11.73733 0,3.80159 -1.72893,6.78493 -8.55418,14.76057 -32.8365,38.37107 -71.02452,65.00671 -107.30065,74.84078 -13.26083,3.59486 -26.91624,5.12908 -39.22015,4.40646 z m 15.11625,-43.8935 c 6.46688,-0.86115 16.03036,-4.94658 21.87411,-9.34443 6.03972,-4.54533 11.77676,-11.40128 15.1806,-18.14129 1.73788,-3.4412 3.86616,-10.08414 4.5542,-14.21486 0.74897,-4.49646 0.75421,-12.50551 0.011,-16.77213 -2.32006,-13.31875 -9.12811,-24.44498 -19.92362,-32.56068 -3.23194,-2.42967 -10.71532,-6.25139 -14.92238,-7.62078 -4.68636,-1.525408 -8.31236,-2.001869 -15.31013,-2.011778 -7.60021,-0.01078 -9.98686,0.326447 -15.63298,2.208788 -17.03985,5.68085 -29.21461,18.6442 -33.71063,35.89417 -0.950045,3.64503 -1.085288,4.82591 -1.242394,10.84813 -0.200292,7.67768 0.203181,10.9371 2.079154,16.79632 2.63031,8.21522 6.44695,14.43928 12.74065,20.77705 6.91626,6.96468 13.90873,10.97194 23.27901,13.34078 5.56858,1.40775 14.04139,1.73045 21.02343,0.80071 z"
   id="path1236" /></svg>
